<svg height="606" width="720" xmlns="http://www.w3.org/2000/svg">
<rect height="606" fill="#555" width="720"></rect>
<text fill="#7f7" font-family="Courier New" font-size="12" xml:space="preserve">
<tspan x="10" y="26">12 megabytes installed</tspan>
<tspan x="10" y="42"></tspan>
<tspan x="10" y="58">node_modules</tspan>
<tspan x="10" y="74">└─┬ mongoose-q@0.1.0 </tspan>
<tspan x="10" y="90">  ├─┬ mongoose@4.9.5 </tspan>
<tspan x="10" y="106">  │ ├─┬ async@2.1.4 </tspan>
<tspan x="10" y="122">  │ │ └── lodash@4.17.4 </tspan>
<tspan x="10" y="138">  │ ├── bson@1.0.4 </tspan>
<tspan x="10" y="154">  │ ├── hooks-fixed@2.0.0 </tspan>
<tspan x="10" y="170">  │ ├── kareem@1.2.1 </tspan>
<tspan x="10" y="186">  │ ├─┬ mongodb@2.2.25 </tspan>
<tspan x="10" y="202">  │ │ ├── es6-promise@3.2.1 </tspan>
<tspan x="10" y="218">  │ │ ├─┬ mongodb-core@2.1.9 </tspan>
<tspan x="10" y="234">  │ │ │ └─┬ require_optional@1.0.0 </tspan>
<tspan x="10" y="250">  │ │ │   ├── resolve-from@2.0.0 </tspan>
<tspan x="10" y="266">  │ │ │   └── semver@5.3.0 </tspan>
<tspan x="10" y="282">  │ │ └─┬ readable-stream@2.1.5 </tspan>
<tspan x="10" y="298">  │ │   ├── buffer-shims@1.0.0 </tspan>
<tspan x="10" y="314">  │ │   ├── core-util-is@1.0.2 </tspan>
<tspan x="10" y="330">  │ │   ├── inherits@2.0.3 </tspan>
<tspan x="10" y="346">  │ │   ├── isarray@1.0.0 </tspan>
<tspan x="10" y="362">  │ │   ├── process-nextick-args@1.0.7 </tspan>
<tspan x="10" y="378">  │ │   ├── string_decoder@0.10.31 </tspan>
<tspan x="10" y="394">  │ │   └── util-deprecate@1.0.2 </tspan>
<tspan x="10" y="410">  │ ├── mpath@0.2.1 </tspan>
<tspan x="10" y="426">  │ ├── mpromise@0.5.5 </tspan>
<tspan x="10" y="442">  │ ├─┬ mquery@2.3.0 </tspan>
<tspan x="10" y="458">  │ │ ├── bluebird@2.10.2 </tspan>
<tspan x="10" y="474">  │ │ ├─┬ debug@2.2.0 </tspan>
<tspan x="10" y="490">  │ │ │ └── ms@0.7.1 </tspan>
<tspan x="10" y="506">  │ │ └── sliced@0.0.5 </tspan>
<tspan x="10" y="522">  │ ├── ms@0.7.2 </tspan>
<tspan x="10" y="538">  │ ├── muri@1.2.1 </tspan>
<tspan x="10" y="554">  │ ├── regexp-clone@0.0.1 </tspan>
<tspan x="10" y="570">  │ └── sliced@1.0.1 </tspan>
<tspan x="10" y="586">  └── q@1.5.0</tspan>
</text>
</svg>
